HIERARCHY
ROOT Hips
{
	OFFSET 0.000000 0.000000 0.000000
	CHANNELS 6 Xposition Yposition Zposition Zrotation Yrotation Xrotation 
	JOINT LHipJoint
	{
		OFFSET 0.000000 0.000000 0.000000
		CHANNELS 3 Zrotation Yrotation Xrotation
		JOINT LeftUpLeg
		{
			OFFSET 1.363060 -1.794630 0.839290
			CHANNELS 3 Zrotation Yrotation Xrotation
			JOINT LeftLeg
			{
				OFFSET 2.448110 -6.726130 0.000000
				CHANNELS 3 Zrotation Yrotation Xrotation
				JOINT LeftFoot
				{
					OFFSET 2.562200 -7.039590 0.000000
					CHANNELS 3 Zrotation Yrotation Xrotation
					JOINT LeftToeBase
					{
						OFFSET 0.157640 -0.433110 2.322550
						CHANNELS 3 Zrotation Yrotation Xrotation
						End Site
						{
							OFFSET 0.000000 0.000000 0.000000
						}
					}
				}
			}
		}
	}
	JOINT RHipJoint
	{
		OFFSET 0.000000 0.000000 0.000000
		CHANNELS 3 Zrotation Yrotation Xrotation
		JOINT RightUpLeg
		{
			OFFSET -1.305520 -1.794630 0.839290
			CHANNELS 3 Zrotation Yrotation Xrotation
			JOINT RightLeg
			{
				OFFSET -2.542530 -6.985550 0.000000
				CHANNELS 3 Zrotation Yrotation Xrotation
				JOINT RightFoot
				{
					OFFSET -2.568260 -7.056230 0.000000
					CHANNELS 3 Zrotation Yrotation Xrotation
					JOINT RightToeBase
					{
						OFFSET -0.164730 -0.452590 2.363150
						CHANNELS 3 Zrotation Yrotation Xrotation
						End Site
						{
							OFFSET 0.000000 0.000000 0.000000
						}
					}
				}
			}
		}
	}
	JOINT LowerBack
	{
		OFFSET 0.000000 0.000000 0.000000
		CHANNELS 3 Zrotation Yrotation Xrotation
		JOINT Spine
		{
			OFFSET 0.028270 2.035590 -0.193380
			CHANNELS 3 Zrotation Yrotation Xrotation
			JOINT Spine1
			{
				OFFSET 0.056720 2.048850 -0.042750
				CHANNELS 3 Zrotation Yrotation Xrotation
				JOINT Neck
				{
					OFFSET 0.000000 0.000000 0.000000
					CHANNELS 3 Zrotation Yrotation Xrotation
					JOINT Neck1
					{
						OFFSET -0.054170 1.746240 0.172020
						CHANNELS 3 Zrotation Yrotation Xrotation
						JOINT Head
						{
							OFFSET 0.104070 1.761360 -0.123970
							CHANNELS 3 Zrotation Yrotation Xrotation
							End Site
							{
								OFFSET 0.000000 0.000000 0.000000
							}
						}
					}
				}
				JOINT LeftShoulder
				{
					OFFSET 0.000000 0.000000 0.000000
					CHANNELS 3 Zrotation Yrotation Xrotation
					JOINT LeftArm
					{
						OFFSET 3.362410 1.200890 -0.311210
						CHANNELS 3 Zrotation Yrotation Xrotation
						JOINT LeftForeArm
						{
							OFFSET 4.983000 -0.000000 -0.000000
							CHANNELS 3 Zrotation Yrotation Xrotation
							JOINT LeftHand
							{
								OFFSET 3.483560 -0.000000 -0.000000
								CHANNELS 3 Zrotation Yrotation Xrotation
								JOINT LeftFingerBase
								{
									OFFSET 0.000000 0.000000 0.000000
									CHANNELS 3 Zrotation Yrotation Xrotation
									JOINT LeftHandIndex1
									{
										OFFSET 0.715260 -0.000000 -0.000000
										CHANNELS 3 Zrotation Yrotation Xrotation
										End Site
										{
											OFFSET 0.000000 0.000000 0.000000
										}
									}
								}
								JOINT LThumb
								{
									OFFSET 0.000000 0.000000 0.000000
									CHANNELS 3 Zrotation Yrotation Xrotation
									End Site
									{
										OFFSET 0.000000 0.000000 0.000000
									}
								}
							}
						}
					}
				}
				JOINT RightShoulder
				{
					OFFSET 0.000000 0.000000 0.000000
					CHANNELS 3 Zrotation Yrotation Xrotation
					JOINT RightArm
					{
						OFFSET -3.136600 1.374050 -0.404650
						CHANNELS 3 Zrotation Yrotation Xrotation
						JOINT RightForeArm
						{
							OFFSET -5.241900 -0.000000 -0.000000
							CHANNELS 3 Zrotation Yrotation Xrotation
							JOINT RightHand
							{
								OFFSET -3.444170 -0.000000 -0.000000
								CHANNELS 3 Zrotation Yrotation Xrotation
								JOINT RightFingerBase
								{
									OFFSET 0.000000 0.000000 0.000000
									CHANNELS 3 Zrotation Yrotation Xrotation
									JOINT RightHandIndex1
									{
										OFFSET -0.622530 -0.000000 -0.000000
										CHANNELS 3 Zrotation Yrotation Xrotation
										End Site
										{
											OFFSET 0.000000 0.000000 0.000000
										}
									}
								}
								JOINT RThumb
								{
									OFFSET 0.000000 0.000000 0.000000
									CHANNELS 3 Zrotation Yrotation Xrotation
									End Site
									{
										OFFSET 0.000000 0.000000 0.000000
									}
								}
							}
						}
					}
				}
			}
		}
	}
}
MOTION
Frames: 7
Frame Time: 0.008333
2.172356 17.070260 2.636747 -178.787165 -82.230961 177.265097 -10.642974 2.486482 0.149480 -11.914872 10.873833 -5.902207 -2.106456 0.261547 18.940959 1.877095 9.411126 -15.348652 -1.596700 0.000000 -18.789500 9.635578 -0.669470 -0.351425 7.923334 -9.581259 -26.913855 1.384814 -2.172359 35.360961 -1.599506 -6.954619 -7.835466 -0.216200 -0.000000 -31.084700 -1.411484 -2.157642 -1.425120 -0.970833 -2.149954 -2.534739 -6.130681 -2.130775 2.511845 8.803114 -12.974378 -7.782785 -2.736286 -0.207864 -0.038500 0.000000 0.000000 0.000000 0.298620 12.763467 1.412980 -43.478141 -9.485045 -0.133558 -3.876519 -24.565549 -0.008355 3.498359 2.229592 0.071026 -0.185891 0.045465 0.000000 0.000000 0.000000 0.000000 0.000000 0.000000 0.000000 13.715788 -10.586205 -0.156173 58.520742 -0.851511 -11.214356 3.936202 19.896224 0.014014 2.701646 5.575802 0.128105 0.107351 -0.054960 -0.000000 0.000000 0.000000 0.000000 0.000000 0.000000 0.000000 
2.025689 17.065836 2.637650 -178.228425 -82.591455 176.783545 -10.625886 2.523351 0.161340 -11.834284 10.681106 -5.008229 -2.111585 0.222279 18.336354 1.874557 9.303482 -15.528947 -1.619600 -0.000000 -19.057200 9.516862 -0.587543 -0.245049 8.432375 -9.591097 -27.328558 1.564508 -1.929710 32.329855 -1.627376 -7.105931 -7.258751 -0.341199 0.000000 -31.892100 -1.148886 -2.288203 -1.497933 -0.920926 -2.301913 -2.534089 -6.172494 -2.279127 2.540542 8.982245 -13.200604 -7.780224 -2.747906 -0.208873 -0.035618 0.000000 0.000000 0.000000 0.609604 12.400783 1.454867 -42.438480 -9.969462 0.159807 -3.785229 -25.561889 -0.008259 3.413359 2.149585 0.066859 -0.186484 0.050071 0.000000 0.000000 0.000000 0.000000 0.000000 0.000000 0.000000 13.990190 -10.943387 -0.184418 59.228966 -1.383794 -12.983244 3.978236 18.819447 0.014173 2.298705 5.671324 0.109995 0.110630 -0.056466 -0.000000 0.000000 0.000000 0.000000 0.000000 0.000000 0.000000 
1.878639 17.058962 2.637468 -177.918573 -82.943036 176.544738 -10.603147 2.559806 0.164254 -11.794242 10.491551 -4.082182 -2.117660 0.182160 17.706252 1.876017 9.220381 -15.700313 -1.643300 0.000000 -19.298500 9.409602 -0.512703 -0.135447 8.895166 -9.618889 -27.688446 1.746822 -1.673647 29.235352 -1.626476 -7.139891 -6.590926 -0.478599 0.000000 -32.954000 -0.925085 -2.417311 -1.564622 -0.877640 -2.449565 -2.532366 -6.208416 -2.423339 2.569221 9.161951 -13.440454 -7.790027 -2.756065 -0.209456 -0.036076 0.000000 0.000000 0.000000 0.926089 12.057832 1.493993 -41.407563 -10.428854 0.405149 -3.685961 -26.558065 -0.008172 3.367316 2.058484 0.062989 -0.186719 0.055183 0.000000 0.000000 0.000000 0.000000 0.000000 0.000000 0.000000 14.259972 -11.308961 -0.208946 59.924006 -1.911730 -14.664998 4.009188 17.764789 0.014315 1.848175 5.790350 0.089086 0.113822 -0.058075 -0.000000 0.000000 0.000000 0.000000 0.000000 0.000000 0.000000 
1.730985 17.049668 2.636045 -177.941388 -83.284426 176.634622 -10.575314 2.595188 0.157778 -11.799284 10.311565 -3.128990 -2.124941 0.140555 17.051615 1.881782 9.163562 -15.862402 -1.668500 -0.000000 -19.507900 9.314789 -0.443425 -0.019230 9.304747 -9.655781 -28.008757 1.932205 -1.404960 26.105329 -1.591010 -7.029752 -5.851087 -0.617800 -0.000000 -34.313400 -0.744697 -2.543634 -1.628673 -0.842414 -2.591320 -2.531204 -6.239521 -2.561927 2.594346 9.340201 -13.671989 -7.805109 -2.762336 -0.209828 -0.038001 0.000000 0.000000 0.000000 1.251258 11.728765 1.530786 -40.389505 -10.856623 0.595742 -3.580537 -27.547865 -0.008119 3.351784 1.963791 0.059716 -0.186644 0.060801 0.000000 0.000000 0.000000 0.000000 0.000000 0.000000 0.000000 14.523720 -11.658939 -0.229861 60.616120 -2.473014 -16.280966 4.030156 16.757369 0.014416 1.373836 5.919201 0.066176 0.116804 -0.059666 -0.000000 0.000000 0.000000 0.000000 0.000000 0.000000 0.000000 
1.582650 17.038076 2.633391 -178.365296 -83.613467 177.123712 -10.543244 2.628672 0.141410 -11.849742 10.149070 -2.157059 -2.133687 0.097039 16.376732 1.891623 9.131344 -16.015750 -1.695200 -0.000001 -19.687400 9.232574 -0.377617 0.106863 9.657044 -9.689841 -28.304894 2.120153 -1.124924 22.968893 -1.518288 -6.761487 -5.061540 -0.746600 -0.000000 -35.975200 -0.608137 -2.666405 -1.693115 -0.815572 -2.726407 -2.531088 -6.265997 -2.694094 2.616410 9.515988 -13.893957 -7.824078 -2.767190 -0.210047 -0.041026 0.000000 0.000000 0.000000 1.582125 11.415997 1.564647 -39.385642 -11.255974 0.728965 -3.470579 -28.524924 -0.008125 3.357331 1.872063 0.056740 -0.186291 0.066883 0.000000 0.000000 0.000000 0.000000 0.000000 0.000000 0.000000 14.782375 -11.991796 -0.247611 61.306775 -3.070661 -17.812107 4.042628 15.803803 0.014469 0.888071 6.049898 0.041566 0.119558 -0.061117 -0.000000 0.000000 0.000000 0.000000 0.000000 0.000000 0.000000 
1.433435 17.024307 2.629579 -179.227525 -83.926463 178.053064 -10.507803 2.659542 0.115034 -11.941641 10.011455 -1.175805 -2.143941 0.051300 15.687253 1.904887 9.119635 -16.160418 -1.723200 0.000001 -19.847001 9.162274 -0.313095 0.245540 9.951675 -9.707854 -28.590656 2.309162 -0.835299 19.855609 -1.409477 -6.336201 -4.248200 -0.853100 0.000000 -37.896400 -0.511543 -2.785331 -1.760539 -0.796347 -2.854795 -2.531620 -6.287408 -2.819692 2.639016 9.689138 -14.120801 -7.850067 -2.770255 -0.210045 -0.045983 0.000000 0.000000 0.000000 1.912138 11.128443 1.594298 -38.396174 -11.637679 0.804501 -3.357470 -29.482884 -0.008194 3.374147 1.788236 0.054259 -0.185669 0.073365 0.000000 0.000000 0.000000 0.000000 0.000000 0.000000 0.000000 15.038594 -12.323056 -0.262934 61.990826 -3.684191 -19.205625 4.048223 14.899968 0.014468 0.392951 6.175385 0.015254 0.122154 -0.062285 -0.000000 0.000000 0.000000 0.000000 0.000000 0.000000 0.000000 
1.283249 17.008538 2.624821 179.472519 -84.220478 179.424309 -10.469591 2.687360 0.079464 -12.066993 9.904548 -0.194888 -2.155510 0.003327 14.992430 1.920594 9.122162 -16.297731 -1.752200 0.000000 -20.002100 9.102768 -0.248000 0.398706 10.191184 -9.699340 -28.876467 2.496615 -0.538314 16.794848 -1.269444 -5.769602 -3.439031 -0.927600 0.000000 -39.994100 -0.446660 -2.899954 -1.833914 -0.783394 -2.976628 -2.534267 -6.304568 -2.938918 2.659045 9.856139 -14.330976 -7.877013 -2.772810 -0.210002 -0.051242 0.000000 0.000000 0.000000 2.240184 10.862260 1.620702 -37.426842 -11.995550 0.819483 -3.243173 -30.416569 -0.008322 3.392720 1.713167 0.051975 -0.184793 0.080204 0.000000 0.000000 0.000000 0.000000 0.000000 0.000000 0.000000 15.287885 -12.629871 -0.275835 62.678796 -4.341094 -20.501354 4.049481 14.062030 0.014404 -0.081031 6.278406 -0.010857 0.124480 -0.063120 -0.000000 0.000000 0.000000 0.000000 0.000000 0.000000 0.000000 
